<?xml version="1.0" encoding="utf-8"?>
<svg version="1.1" xmlns:xlink="http://www.w3.org/1999/xlink" width="105px" height="90px" xmlns="http://www.w3.org/2000/svg">
  <g transform="matrix(1 0 0 1 -146 -110 )">
    <path d="M 103.103225806452 12.4242424242424  C 104.367741935484 13.8383838383838  105 15.5555555555556  105 17.5757575757576  C 105 19.5959595959596  104.367741935484 21.3131313131313  103.103225806452 22.7272727272727  L 54.058064516129 77.5757575757576  L 44.8451612903226 87.8787878787879  C 43.5806451612903 89.2929292929293  42.0451612903226 90  40.2387096774194 90  C 38.4322580645161 90  36.8967741935484 89.2929292929293  35.6322580645161 87.8787878787879  L 26.4193548387097 77.5757575757576  L 1.89677419354839 50.1515151515152  C 0.63225806451613 48.7373737373737  0 47.020202020202  0 45  C 0 42.979797979798  0.63225806451613 41.2626262626263  1.89677419354839 39.8484848484849  L 11.1096774193548 29.5454545454545  C 12.3741935483871 28.1313131313131  13.9096774193548 27.4242424242424  15.7161290322581 27.4242424242424  C 17.5225806451613 27.4242424242424  19.058064516129 28.1313131313131  20.3225806451613 29.5454545454545  L 40.2387096774194 51.8939393939394  L 84.6774193548387 2.12121212121212  C 85.941935483871 0.707070707070704  87.4774193548387 0  89.2838709677419 0  C 91.0903225806452 0  92.6258064516129 0.707070707070704  93.8903225806452 2.12121212121212  L 103.103225806452 12.4242424242424  Z " fill-rule="nonzero" fill="#000000" stroke="none" transform="matrix(1 0 0 1 146 110 )" />
  </g>
</svg>