<?xml version="1.0" encoding="utf-8"?>
<svg version="1.1" xmlns:xlink="http://www.w3.org/1999/xlink" width="159px" height="150px" xmlns="http://www.w3.org/2000/svg">
  <g transform="matrix(1 0 0 1 -119 -80 )">
    <path d="M 105.2236328125 17.48046875  C 97.0458984375 14.16015625  88.4713541666667 12.5  79.5 12.5  C 70.5286458333333 12.5  61.9541015625 14.16015625  53.7763671875 17.48046875  C 45.5986328125 20.80078125  38.5595703125 25.244140625  32.6591796875 30.810546875  C 26.7587890625 36.376953125  22.048828125 43.017578125  18.529296875 50.732421875  C 15.009765625 58.447265625  13.25 66.5364583333333  13.25 75  C 13.25 83.4635416666667  15.009765625 91.552734375  18.529296875 99.267578125  C 22.048828125 106.982421875  26.7587890625 113.623046875  32.6591796875 119.189453125  C 38.5595703125 124.755859375  45.5986328125 129.19921875  53.7763671875 132.51953125  C 61.9541015625 135.83984375  70.5286458333333 137.5  79.5 137.5  C 88.4713541666667 137.5  97.0458984375 135.83984375  105.2236328125 132.51953125  C 113.4013671875 129.19921875  120.4404296875 124.755859375  126.3408203125 119.189453125  C 132.2412109375 113.623046875  136.951171875 106.982421875  140.470703125 99.267578125  C 143.990234375 91.552734375  145.75 83.4635416666667  145.75 75  C 145.75 66.5364583333333  143.990234375 58.447265625  140.470703125 50.732421875  C 136.951171875 43.017578125  132.2412109375 36.376953125  126.3408203125 30.810546875  C 120.4404296875 25.244140625  113.4013671875 20.80078125  105.2236328125 17.48046875  Z M 148.337890625 37.353515625  C 155.445963541667 48.8444010416667  159 61.3932291666666  159 75  C 159 88.6067708333333  155.445963541667 101.155598958333  148.337890625 112.646484375  C 141.229817708333 124.137369791667  131.585611979167 133.235677083333  119.4052734375 139.94140625  C 107.224934895833 146.647135416667  93.9231770833333 150  79.5 150  C 65.0768229166667 150  51.7750651041667 146.647135416667  39.5947265625 139.94140625  C 27.4143880208333 133.235677083333  17.7701822916667 124.137369791667  10.662109375 112.646484375  C 3.55403645833333 101.155598958333  0 88.6067708333333  0 75  C 0 61.3932291666666  3.55403645833333 48.8444010416667  10.662109375 37.353515625  C 17.7701822916667 25.8626302083333  27.4143880208333 16.7643229166667  39.5947265625 10.05859375  C 51.7750651041667 3.35286458333332  65.0768229166667 0  79.5 0  C 93.9231770833333 0  107.224934895833 3.35286458333332  119.4052734375 10.05859375  C 131.585611979167 16.7643229166667  141.229817708333 25.8626302083333  148.337890625 37.353515625  Z " fill-rule="nonzero" fill="#000000" stroke="none" transform="matrix(1 0 0 1 119 80 )" />
  </g>
</svg>