<?xml version="1.0" encoding="utf-8"?>
<svg version="1.1" xmlns:xlink="http://www.w3.org/1999/xlink" width="17px" height="18px" xmlns="http://www.w3.org/2000/svg">
  <g transform="matrix(1 0 0 1 -336 -13 )">
    <path d="M 10.42578125 11.0390625  C 11.3214142628205 10.0907451923077  11.7692307692308 8.94951923076923  11.7692307692308 7.61538461538462  C 11.7692307692308 6.28125  11.3214142628205 5.14002403846154  10.42578125 4.19170673076923  C 9.53014823717949 3.24338942307692  8.45232371794872 2.76923076923077  7.19230769230769 2.76923076923077  C 5.93229166666667 2.76923076923077  4.8544671474359 3.24338942307692  3.95883413461538 4.19170673076923  C 3.06320112179487 5.14002403846154  2.61538461538462 6.28125  2.61538461538462 7.61538461538462  C 2.61538461538462 8.94951923076923  3.06320112179487 10.0907451923077  3.95883413461538 11.0390625  C 4.8544671474359 11.9873798076923  5.93229166666667 12.4615384615385  7.19230769230769 12.4615384615385  C 8.45232371794872 12.4615384615385  9.53014823717949 11.9873798076923  10.42578125 11.0390625  Z M 16.6219951923077 15.6418269230769  C 16.8739983974359 15.9086538461538  17 16.2331730769231  17 16.6153846153846  C 17 16.9903846153846  16.8705929487179 17.3149038461538  16.6117788461538 17.5889423076923  C 16.3529647435897 17.8629807692308  16.0464743589744 18  15.6923076923077 18  C 15.3245192307692 18  15.0180288461538 17.8629807692308  14.7728365384615 17.5889423076923  L 11.2686298076923 13.8894230769231  C 10.0494791666667 14.7836538461538  8.69070512820513 15.2307692307692  7.19230769230769 15.2307692307692  C 6.21834935897436 15.2307692307692  5.28695913461538 15.0306490384615  4.39813701923077 14.6304086538462  C 3.50931490384615 14.2301682692308  2.74308894230769 13.6893028846154  2.09945913461538 13.0078125  C 1.45582932692308 12.3263221153846  0.945012019230769 11.5150240384615  0.567007211538462 10.5739182692308  C 0.189002403846154 9.6328125  0 8.64663461538461  0 7.61538461538462  C 0 6.58413461538461  0.189002403846154 5.59795673076923  0.567007211538462 4.65685096153846  C 0.945012019230769 3.71574519230769  1.45582932692308 2.90444711538462  2.09945913461538 2.22295673076923  C 2.74308894230769 1.54146634615385  3.50931490384615 1.00060096153846  4.39813701923077 0.600360576923078  C 5.28695913461538 0.200120192307692  6.21834935897436 0  7.19230769230769 0  C 8.16626602564103 0  9.09765625 0.200120192307692  9.98647836538462 0.600360576923078  C 10.8753004807692 1.00060096153846  11.6415264423077 1.54146634615385  12.28515625 2.22295673076923  C 12.9287860576923 2.90444711538462  13.4396033653846 3.71574519230769  13.8176081730769 4.65685096153846  C 14.1956129807692 5.59795673076923  14.3846153846154 6.58413461538461  14.3846153846154 7.61538461538462  C 14.3846153846154 9.20192307692308  13.9623397435897 10.640625  13.1177884615385 11.9314903846154  L 16.6219951923077 15.6418269230769  Z " fill-rule="nonzero" fill="#8c8c8c" stroke="none" transform="matrix(1 0 0 1 336 13 )" />
  </g>
</svg>