<?xml version="1.0" encoding="utf-8"?>
<svg version="1.1" xmlns:xlink="http://www.w3.org/1999/xlink" width="300px" height="170px" xmlns="http://www.w3.org/2000/svg">
  <g transform="matrix(1 0 0 1 -37 -85 )">
    <path d="M 37 85  L 337 85  L 337 255  L 37 255  L 37 85  " fill-rule="nonzero" fill="#cccccc" stroke="none" />
    <path d="M 49 97  L 325 97  L 325 243  L 49 243  L 49 97  " fill-rule="nonzero" fill="#ffffff" stroke="none" />
    <path d="M 205.75 136  C 198.61 136  193 130.39  193 123.25  C 193 116.11  198.61 110.5  205.75 110.5  C 212.89 110.5  218.5 116.11  218.5 123.25  C 218.5 130.39  212.89 136  205.75 136  " fill-rule="nonzero" fill="#cccccc" stroke="none" />
    <path d="M 54 239  L 54 163.65  L 120.75 129.4  L 214.2 192.42  L 267.6 149.95  L 321 192.42  L 321 239  L 54 239  " fill-rule="nonzero" fill="#169bd5" stroke="none" />
  </g>
</svg>