<?xml version="1.0" encoding="utf-8"?>
<svg version="1.1" xmlns:xlink="http://www.w3.org/1999/xlink" width="21px" height="21px" xmlns="http://www.w3.org/2000/svg">
  <g transform="matrix(1 0 0 1 -6 -10 )">
    <path d="M 17.5 6  C 17.5 7.1484375  17.1399739583333 8.2109375  16.419921875 9.1875  C 16.8483072916667 9.296875  17.2561848958333 9.4453125  17.6435546875 9.6328125  C 18.0309244791667 9.8203125  18.4365234375 10.10546875  18.8603515625 10.48828125  C 19.2841796875 10.87109375  19.646484375 11.322265625  19.947265625 11.841796875  C 20.248046875 12.361328125  20.4986979166667 13.033203125  20.69921875 13.857421875  C 20.8997395833333 14.681640625  21 15.60546875  21 16.62890625  C 21 17.83203125  20.5442708333333 18.861328125  19.6328125 19.716796875  C 18.7213541666667 20.572265625  17.623046875 21  16.337890625 21  L 4.662109375 21  C 3.376953125 21  2.27864583333333 20.572265625  1.3671875 19.716796875  C 0.455729166666667 18.861328125  0 17.83203125  0 16.62890625  C 0 15.60546875  0.100260416666667 14.681640625  0.30078125 13.857421875  C 0.501302083333333 13.033203125  0.751953125 12.361328125  1.052734375 11.841796875  C 1.353515625 11.322265625  1.7158203125 10.87109375  2.1396484375 10.48828125  C 2.5634765625 10.10546875  2.96907552083333 9.8203125  3.3564453125 9.6328125  C 3.74381510416667 9.4453125  4.15169270833333 9.296875  4.580078125 9.1875  C 3.86002604166667 8.2109375  3.5 7.1484375  3.5 6  C 3.5 5.1875  3.6845703125 4.412109375  4.0537109375 3.673828125  C 4.4228515625 2.935546875  4.921875 2.296875  5.55078125 1.7578125  C 6.1796875 1.21875  6.9248046875 0.791015625  7.7861328125 0.474609374999999  C 8.6474609375 0.158203124999999  9.55208333333333 0  10.5 0  C 11.4479166666667 0  12.3525390625 0.158203124999999  13.2138671875 0.474609374999999  C 14.0751953125 0.791015625  14.8203125 1.21875  15.44921875 1.7578125  C 16.078125 2.296875  16.5771484375 2.935546875  16.9462890625 3.673828125  C 17.3154296875 4.412109375  17.5 5.1875  17.5 6  Z M 14.2119140625 2.818359375  C 13.1865234375 1.939453125  11.94921875 1.5  10.5 1.5  C 9.05078125 1.5  7.8134765625 1.939453125  6.7880859375 2.818359375  C 5.7626953125 3.697265625  5.25 4.7578125  5.25 6  C 5.25 7.2421875  5.7626953125 8.302734375  6.7880859375 9.181640625  C 7.8134765625 10.060546875  9.05078125 10.5  10.5 10.5  C 11.94921875 10.5  13.1865234375 10.060546875  14.2119140625 9.181640625  C 15.2373046875 8.302734375  15.75 7.2421875  15.75 6  C 15.75 4.7578125  15.2373046875 3.697265625  14.2119140625 2.818359375  Z M 4.662109375 19.5  L 16.337890625 19.5  C 17.1399739583333 19.5  17.8258463541667 19.220703125  18.3955078125 18.662109375  C 18.9651692708333 18.103515625  19.25 17.42578125  19.25 16.62890625  C 19.25 14.76171875  18.8922526041667 13.2890625  18.1767578125 12.2109375  C 17.4612630208333 11.1328125  16.43359375 10.56640625  15.09375 10.51171875  C 13.7721354166667 11.50390625  12.2408854166667 12  10.5 12  C 8.75911458333333 12  7.22786458333333 11.50390625  5.90625 10.51171875  C 4.56640625 10.56640625  3.53873697916667 11.1328125  2.8232421875 12.2109375  C 2.10774739583333 13.2890625  1.75 14.76171875  1.75 16.62890625  C 1.75 17.42578125  2.03483072916667 18.103515625  2.6044921875 18.662109375  C 3.17415364583333 19.220703125  3.86002604166667 19.5  4.662109375 19.5  Z " fill-rule="nonzero" fill="#000000" stroke="none" transform="matrix(1 0 0 1 6 10 )" />
  </g>
</svg>