<?xml version="1.0" encoding="utf-8"?>
<svg version="1.1" xmlns:xlink="http://www.w3.org/1999/xlink" width="128px" height="60px" xmlns="http://www.w3.org/2000/svg">
  <defs>
    <mask fill="white" id="clip13">
      <path d="M 0 50  L 0 10  C 0 4.40000000000009  2.28943089430895 0  5.20325203252033 0  L 59.3170731707317 0  L 122.79674796748 0  C 125.710569105691 0  128 4.40000000000009  128 10  L 128 50  C 128 55.5999999999999  125.710569105691 60  122.79674796748 60  L 5.20325203252033 60  C 2.28943089430895 60  0 55.5999999999999  0 50  Z " fill-rule="evenodd" />
    </mask>
  </defs>
  <g transform="matrix(1 0 0 1 -123 -607 )">
    <path d="M 0 50  L 0 10  C 0 4.40000000000009  2.28943089430895 0  5.20325203252033 0  L 59.3170731707317 0  L 122.79674796748 0  C 125.710569105691 0  128 4.40000000000009  128 10  L 128 50  C 128 55.5999999999999  125.710569105691 60  122.79674796748 60  L 5.20325203252033 60  C 2.28943089430895 60  0 55.5999999999999  0 50  Z " fill-rule="nonzero" fill="#ffffff" stroke="none" transform="matrix(1 0 0 1 123 607 )" />
    <path d="M 0 50  L 0 10  C 0 4.40000000000009  2.28943089430895 0  5.20325203252033 0  L 59.3170731707317 0  L 122.79674796748 0  C 125.710569105691 0  128 4.40000000000009  128 10  L 128 50  C 128 55.5999999999999  125.710569105691 60  122.79674796748 60  L 5.20325203252033 60  C 2.28943089430895 60  0 55.5999999999999  0 50  Z " stroke-width="2" stroke="#797979" fill="none" transform="matrix(1 0 0 1 123 607 )" mask="url(#clip13)" />
  </g>
</svg>