<?xml version="1.0" encoding="utf-8"?>
<svg version="1.1" xmlns:xlink="http://www.w3.org/1999/xlink" width="19px" height="22px" xmlns="http://www.w3.org/2000/svg">
  <g transform="matrix(1 0 0 1 -177 -615 )">
    <path d="M 5.06666666666667 7.85714285714286  C 5.06666666666667 8.99479166666667  5.33385416666667 10.0424107142857  5.86822916666667 11  C 4.79947916666667 11.0409226190476  3.92534722222222 11.5647321428571  3.24583333333333 12.5714285714286  L 1.91979166666667 12.5714285714286  C 1.37881944444444 12.5714285714286  0.923611111111111 12.4056919642857  0.554166666666667 12.07421875  C 0.184722222222222 11.7427455357143  0 11.2578125  0 10.6194196428571  C 0 7.73028273809524  0.409027777777778 6.28571428571429  1.22708333333333 6.28571428571429  C 1.26666666666667 6.28571428571429  1.41015625 6.37165178571429  1.65755208333333 6.54352678571429  C 1.90494791666667 6.71540178571429  2.2265625 6.88932291666667  2.62239583333333 7.06529017857143  C 3.01822916666667 7.24125744047619  3.41076388888889 7.32924107142857  3.8 7.32924107142857  C 4.24201388888889 7.32924107142857  4.68072916666667 7.23511904761905  5.11614583333333 7.046875  C 5.08315972222222 7.34970238095238  5.06666666666667 7.61979166666667  5.06666666666667 7.85714285714286  Z M 16.43203125 17.5496651785714  C 16.4551215277778 17.9629836309524  16.4666666666667 18.3865327380952  16.4666666666667 18.8203125  C 16.4666666666667 19.8024553571429  16.2258680555556 20.5779389880952  15.7442708333333 21.1467633928571  C 15.2626736111111 21.715587797619  14.6227430555556 22  13.8244791666667 22  L 5.17552083333333 22  C 4.37725694444444 22  3.73732638888889 21.715587797619  3.25572916666667 21.1467633928571  C 2.77413194444444 20.5779389880952  2.53333333333333 19.8024553571429  2.53333333333333 18.8203125  C 2.53333333333333 18.3865327380952  2.54487847222222 17.9629836309524  2.56796875 17.5496651785714  C 2.59105902777778 17.1363467261905  2.63723958333333 16.6902901785714  2.70651041666667 16.2114955357143  C 2.77578125 15.7327008928571  2.86319444444444 15.2886904761905  2.96875 14.8794642857143  C 3.07430555555556 14.4702380952381  3.21614583333333 14.0712425595238  3.39427083333333 13.6824776785714  C 3.57239583333333 13.293712797619  3.77690972222222 12.9622395833333  4.0078125 12.6880580357143  C 4.23871527777778 12.4138764880952  4.52074652777778 12.1949404761905  4.85390625 12.03125  C 5.18706597222222 11.8675595238095  5.55486111111111 11.7857142857143  5.95729166666667 11.7857142857143  C 6.02326388888889 11.7857142857143  6.16510416666667 11.8736979166667  6.3828125 12.0496651785714  C 6.60052083333333 12.2256324404762  6.84131944444444 12.4220610119048  7.10520833333333 12.6389508928571  C 7.36909722222222 12.8558407738095  7.72204861111111 13.0522693452381  8.1640625 13.2282366071429  C 8.60607638888889 13.4042038690476  9.05138888888889 13.4921875  9.5 13.4921875  C 9.94861111111111 13.4921875  10.3939236111111 13.4042038690476  10.8359375 13.2282366071429  C 11.2779513888889 13.0522693452381  11.6309027777778 12.8558407738095  11.8947916666667 12.6389508928571  C 12.1586805555556 12.4220610119048  12.3994791666667 12.2256324404762  12.6171875 12.0496651785714  C 12.8348958333333 11.8736979166667  12.9767361111111 11.7857142857143  13.0427083333333 11.7857142857143  C 13.4451388888889 11.7857142857143  13.8129340277778 11.8675595238095  14.14609375 12.03125  C 14.4792534722222 12.1949404761905  14.7612847222222 12.4138764880952  14.9921875 12.6880580357143  C 15.2230902777778 12.9622395833333  15.4276041666667 13.293712797619  15.6057291666667 13.6824776785714  C 15.7838541666667 14.0712425595238  15.9256944444444 14.4702380952381  16.03125 14.8794642857143  C 16.1368055555556 15.2886904761905  16.22421875 15.7327008928571  16.2934895833333 16.2114955357143  C 16.3627604166667 16.6902901785714  16.4089409722222 17.1363467261905  16.43203125 17.5496651785714  Z M 5.59114583333333 0.920758928571429  C 6.0859375 1.53459821428571  6.33333333333333 2.27529761904762  6.33333333333333 3.14285714285714  C 6.33333333333333 4.01041666666667  6.0859375 4.75111607142857  5.59114583333333 5.36495535714286  C 5.09635416666667 5.97879464285714  4.49930555555556 6.28571428571429  3.8 6.28571428571429  C 3.10069444444445 6.28571428571429  2.50364583333333 5.97879464285714  2.00885416666667 5.36495535714286  C 1.5140625 4.75111607142857  1.26666666666667 4.01041666666667  1.26666666666667 3.14285714285714  C 1.26666666666667 2.27529761904762  1.5140625 1.53459821428571  2.00885416666667 0.920758928571429  C 2.50364583333333 0.306919642857144  3.10069444444445 0  3.8 0  C 4.49930555555556 0  5.09635416666667 0.306919642857144  5.59114583333333 0.920758928571429  Z M 12.18671875 4.52399553571429  C 12.92890625 5.44475446428571  13.3 6.55580357142857  13.3 7.85714285714286  C 13.3 9.15848214285714  12.92890625 10.26953125  12.18671875 11.1902901785714  C 11.44453125 12.1110491071429  10.5489583333333 12.5714285714286  9.5 12.5714285714286  C 8.45104166666667 12.5714285714286  7.55546875 12.1110491071429  6.81328125 11.1902901785714  C 6.07109375 10.26953125  5.7 9.15848214285714  5.7 7.85714285714286  C 5.7 6.55580357142857  6.07109375 5.44475446428571  6.81328125 4.52399553571429  C 7.55546875 3.60323660714286  8.45104166666667 3.14285714285714  9.5 3.14285714285714  C 10.5489583333333 3.14285714285714  11.44453125 3.60323660714286  12.18671875 4.52399553571429  Z M 17.7729166666667 6.28571428571429  C 18.5909722222222 6.28571428571429  19 7.73028273809524  19 10.6194196428571  C 19 11.2578125  18.8152777777778 11.7427455357143  18.4458333333333 12.07421875  C 18.0763888888889 12.4056919642857  17.6211805555556 12.5714285714286  17.0802083333333 12.5714285714286  L 15.7541666666667 12.5714285714286  C 15.0746527777778 11.5647321428571  14.2005208333333 11.0409226190476  13.1317708333333 11  C 13.6661458333333 10.0424107142857  13.9333333333333 8.99479166666667  13.9333333333333 7.85714285714286  C 13.9333333333333 7.61979166666667  13.9168402777778 7.34970238095238  13.8838541666667 7.046875  C 14.3192708333333 7.23511904761905  14.7579861111111 7.32924107142857  15.2 7.32924107142857  C 15.5892361111111 7.32924107142857  15.9817708333333 7.24125744047619  16.3776041666667 7.06529017857143  C 16.7734375 6.88932291666667  17.0950520833333 6.71540178571429  17.3424479166667 6.54352678571429  C 17.58984375 6.37165178571429  17.7333333333333 6.28571428571429  17.7729166666667 6.28571428571429  Z M 16.9911458333333 0.920758928571429  C 17.4859375 1.53459821428571  17.7333333333333 2.27529761904762  17.7333333333333 3.14285714285714  C 17.7333333333333 4.01041666666667  17.4859375 4.75111607142857  16.9911458333333 5.36495535714286  C 16.4963541666667 5.97879464285714  15.8993055555556 6.28571428571429  15.2 6.28571428571429  C 14.5006944444444 6.28571428571429  13.9036458333333 5.97879464285714  13.4088541666667 5.36495535714286  C 12.9140625 4.75111607142857  12.6666666666667 4.01041666666667  12.6666666666667 3.14285714285714  C 12.6666666666667 2.27529761904762  12.9140625 1.53459821428571  13.4088541666667 0.920758928571429  C 13.9036458333333 0.306919642857144  14.5006944444444 0  15.2 0  C 15.8993055555556 0  16.4963541666667 0.306919642857144  16.9911458333333 0.920758928571429  Z " fill-rule="nonzero" fill="#000000" stroke="none" transform="matrix(1 0 0 1 177 615 )" />
  </g>
</svg>