<?xml version="1.0" encoding="utf-8"?>
<svg version="1.1" xmlns:xlink="http://www.w3.org/1999/xlink" width="19px" height="22px" xmlns="http://www.w3.org/2000/svg">
  <g transform="matrix(1 0 0 1 -55 -615 )">
    <path d="M 0 4.71428571428571  L 9.5 0  L 19 4.71428571428571  L 19 6.28571428571429  L 17.7333333333333 6.28571428571429  C 17.7333333333333 6.49851190476191  17.6657118055556 6.68266369047619  17.53046875 6.83816964285714  C 17.3952256944444 6.99367559523809  17.2352430555556 7.07142857142857  17.0505208333333 7  L 1.94947916666667 7  C 1.76475694444444 7.07142857142857  1.60477430555556 6.99367559523809  1.46953125 6.83816964285714  C 1.33428819444444 6.68266369047619  1.26666666666667 6.49851190476191  1.26666666666667 6.28571428571429  L 0 6.28571428571429  L 0 4.71428571428571  Z M 2.53333333333333 17.2857142857143  L 2.53333333333333 7.85714285714286  L 5.06666666666667 7.85714285714286  L 5.06666666666667 17.2857142857143  L 6.33333333333333 17.2857142857143  L 6.33333333333333 7.85714285714286  L 8.86666666666667 7.85714285714286  L 8.86666666666667 17.2857142857143  L 10.1333333333333 17.2857142857143  L 10.1333333333333 7.85714285714286  L 12.6666666666667 7.85714285714286  L 12.6666666666667 17.2857142857143  L 13.9333333333333 17.2857142857143  L 13.9333333333333 7.85714285714286  L 16.4666666666667 7.85714285714286  L 16.4666666666667 17.2857142857143  L 17.0505208333333 17.2857142857143  C 17.2352430555556 17.2857142857143  17.3952256944444 17.3634672619048  17.53046875 17.5189732142857  C 17.6657118055556 17.6744791666667  17.7333333333333 17.858630952381  17.7333333333333 18.0714285714286  L 17.7333333333333 18.8571428571429  L 1.26666666666667 18.8571428571429  L 1.26666666666667 18.0714285714286  C 1.26666666666667 17.858630952381  1.33428819444444 17.6744791666667  1.46953125 17.5189732142857  C 1.60477430555556 17.3634672619048  1.76475694444444 17.2857142857143  1.94947916666667 17.2857142857143  L 2.53333333333333 17.2857142857143  Z M 0.6828125 19.6428571428571  L 18.3171875 19.6428571428571  C 18.5019097222222 19.6428571428571  18.6618923611111 19.7206101190476  18.7971354166667 19.8761160714286  C 18.9323784722222 20.0316220238095  19 20.2157738095238  19 20.4285714285714  L 19 22  L 0 22  L 0 20.4285714285714  C 0 20.2157738095238  0.0676215277777778 20.0316220238095  0.202864583333333 19.8761160714286  C 0.338107638888889 19.7206101190476  0.498090277777778 19.6428571428571  0.6828125 19.6428571428571  Z " fill-rule="nonzero" fill="#000000" stroke="none" transform="matrix(1 0 0 1 55 615 )" />
  </g>
</svg>