<?xml version="1.0" encoding="utf-8"?>
<svg version="1.1" xmlns:xlink="http://www.w3.org/1999/xlink" width="23px" height="25px" xmlns="http://www.w3.org/2000/svg">
  <g transform="matrix(1 0 0 1 -77 -108 )">
    <path d="M 13.0423177083333 17.0735677083333  C 13.1321614583333 17.1712239583333  13.1770833333333 17.2960069444444  13.1770833333333 17.4479166666667  L 13.1770833333333 20.0520833333333  C 13.1770833333333 20.2039930555556  13.1321614583333 20.3287760416667  13.0423177083333 20.4264322916667  C 12.9524739583333 20.5240885416667  12.8376736111111 20.5729166666667  12.6979166666667 20.5729166666667  L 10.3020833333333 20.5729166666667  C 10.1623263888889 20.5729166666667  10.0475260416667 20.5240885416667  9.95768229166667 20.4264322916667  C 9.86783854166667 20.3287760416667  9.82291666666667 20.2039930555556  9.82291666666667 20.0520833333333  L 9.82291666666667 17.4479166666667  C 9.82291666666667 17.2960069444444  9.86783854166667 17.1712239583333  9.95768229166667 17.0735677083333  C 10.0475260416667 16.9759114583333  10.1623263888889 16.9270833333333  10.3020833333333 16.9270833333333  L 12.6979166666667 16.9270833333333  C 12.8376736111111 16.9270833333333  12.9524739583333 16.9759114583333  13.0423177083333 17.0735677083333  Z M 15.3707682291667 5.8837890625  C 16.4638671875 6.85492621527778  17.0104166666667 8.01866319444444  17.0104166666667 9.375  C 17.0104166666667 9.91753472222222  16.935546875 10.4058159722222  16.7858072916667 10.83984375  C 16.6360677083333 11.2738715277778  16.4089626736111 11.6482204861111  16.1044921875 11.962890625  C 15.8000217013889 12.2775607638889  15.5404730902778 12.5162760416667  15.3258463541667 12.6790364583333  C 15.1112196180556 12.841796875  14.8142361111111 13.037109375  14.4348958333333 13.2649739583333  C 14.1154513888889 13.4602864583333  13.8833550347222 13.6121961805556  13.7386067708333 13.720703125  C 13.5938585069444 13.8292100694444  13.4640842013889 13.9594184027778  13.3492838541667 14.111328125  C 13.2344835069444 14.2632378472222  13.1770833333333 14.4205729166667  13.1770833333333 14.5833333333333  L 13.1770833333333 15.1041666666667  C 13.1770833333333 15.2560763888889  13.1321614583333 15.380859375  13.0423177083333 15.478515625  C 12.9524739583333 15.576171875  12.8376736111111 15.625  12.6979166666667 15.625  L 10.3020833333333 15.625  C 10.1623263888889 15.625  10.0475260416667 15.576171875  9.95768229166667 15.478515625  C 9.86783854166667 15.380859375  9.82291666666667 15.2560763888889  9.82291666666667 15.1041666666667  L 9.82291666666667 13.9973958333333  C 9.82291666666667 13.6176215277778  9.87532552083333 13.2676866319444  9.98014322916667 12.9475911458333  C 10.0849609375 12.6274956597222  10.2047526041667 12.3697916666667  10.3395182291667 12.1744791666667  C 10.4742838541667 11.9791666666667  10.6689453125 11.7865668402778  10.9235026041667 11.5966796875  C 11.1780598958333 11.4067925347222  11.3827039930556 11.2684461805556  11.5374348958333 11.181640625  C 11.6921657986111 11.0948350694444  11.9142795138889 10.9809027777778  12.2037760416667 10.83984375  C 12.7328559027778 10.5685763888889  13.1072048611111 10.3352864583333  13.3268229166667 10.1399739583333  C 13.5464409722222 9.94466145833333  13.65625 9.67881944444444  13.65625 9.34244791666667  C 13.65625 8.88671875  13.4391276041667 8.49880642361111  13.0048828125 8.1787109375  C 12.5706380208333 7.85861545138889  12.0939670138889 7.69856770833333  11.5748697916667 7.69856770833333  C 11.0158420138889 7.69856770833333  10.5416666666667 7.84505208333333  10.15234375 8.13802083333333  C 9.86284722222222 8.35503472222222  9.46354166666667 8.80533854166667  8.95442708333333 9.48893229166667  C 8.86458333333333 9.619140625  8.73980034722222 9.68424479166667  8.580078125 9.68424479166667  C 8.47026909722222 9.68424479166667  8.37543402777778 9.65169270833333  8.29557291666667 9.58658854166667  L 6.67838541666667 8.251953125  C 6.57855902777778 8.17599826388889  6.51866319444444 8.06749131944444  6.49869791666667 7.92643229166667  C 6.47873263888889 7.78537326388889  6.50368923611111 7.66059027777778  6.57356770833333 7.55208333333333  C 7.79144965277778 5.46875  9.53342013888889 4.42708333333333  11.7994791666667 4.42708333333333  C 13.0872395833333 4.42708333333333  14.2776692708333 4.91265190972222  15.3707682291667 5.8837890625  Z M 15.2210286458333 2.91341145833333  C 14.0380859375 2.36002604166667  12.7977430555556 2.08333333333333  11.5 2.08333333333333  C 10.2022569444444 2.08333333333333  8.9619140625 2.36002604166667  7.77897135416667 2.91341145833333  C 6.59602864583333 3.466796875  5.57779947916667 4.20735677083333  4.72428385416667 5.13509114583333  C 3.87076822916667 6.06282552083333  3.189453125 7.16959635416667  2.68033854166667 8.45540364583333  C 2.17122395833333 9.7412109375  1.91666666666667 11.0894097222222  1.91666666666667 12.5  C 1.91666666666667 13.9105902777778  2.17122395833333 15.2587890625  2.68033854166667 16.5445963541667  C 3.189453125 17.8304036458333  3.87076822916667 18.9371744791667  4.72428385416667 19.8649088541667  C 5.57779947916667 20.7926432291667  6.59602864583333 21.533203125  7.77897135416667 22.0865885416667  C 8.9619140625 22.6399739583333  10.2022569444444 22.9166666666667  11.5 22.9166666666667  C 12.7977430555556 22.9166666666667  14.0380859375 22.6399739583333  15.2210286458333 22.0865885416667  C 16.4039713541667 21.533203125  17.4222005208333 20.7926432291667  18.2757161458333 19.8649088541667  C 19.1292317708333 18.9371744791667  19.810546875 17.8304036458333  20.3196614583333 16.5445963541667  C 20.8287760416667 15.2587890625  21.0833333333333 13.9105902777778  21.0833333333333 12.5  C 21.0833333333333 11.0894097222222  20.8287760416667 9.7412109375  20.3196614583333 8.45540364583333  C 19.810546875 7.16959635416667  19.1292317708333 6.06282552083333  18.2757161458333 5.13509114583333  C 17.4222005208333 4.20735677083333  16.4039713541667 3.466796875  15.2210286458333 2.91341145833333  Z M 21.4576822916667 6.2255859375  C 22.4858940972222 8.14073350694444  23 10.2322048611111  23 12.5  C 23 14.7677951388889  22.4858940972222 16.8592664930556  21.4576822916667 18.7744140625  C 20.4294704861111 20.6895616319444  19.0343967013889 22.2059461805556  17.2724609375 23.3235677083333  C 15.5105251736111 24.4411892361111  13.5863715277778 25  11.5 25  C 9.41362847222222 25  7.48947482638889 24.4411892361111  5.7275390625 23.3235677083333  C 3.96560329861111 22.2059461805556  2.57052951388889 20.6895616319444  1.54231770833333 18.7744140625  C 0.514105902777778 16.8592664930556  0 14.7677951388889  0 12.5  C 0 10.2322048611111  0.514105902777778 8.14073350694444  1.54231770833333 6.2255859375  C 2.57052951388889 4.31043836805556  3.96560329861111 2.79405381944444  5.7275390625 1.67643229166667  C 7.48947482638889 0.558810763888887  9.41362847222222 0  11.5 0  C 13.5863715277778 0  15.5105251736111 0.558810763888887  17.2724609375 1.67643229166667  C 19.0343967013889 2.79405381944444  20.4294704861111 4.31043836805556  21.4576822916667 6.2255859375  Z " fill-rule="nonzero" fill="#000000" stroke="none" transform="matrix(1 0 0 1 77 108 )" />
  </g>
</svg>